<svg xmlns="http://www.w3.org/2000/svg" width="26" height="26" viewBox="0 0 26 26"><defs><style>.a{fill:rgba(255,255,255,0);}.b{fill:#fff;}</style></defs><g transform="translate(-1275 -878)"><rect class="a" width="26" height="26" transform="translate(1275 878)"/><path class="b" d="M14.173,6.606a.841.841,0,0,0-.464.741v4.8H3.9a.849.849,0,1,0,0,1.7h9.811v4.8a.839.839,0,0,0,.464.741.942.942,0,0,0,.912-.024l9.5-5.652a.824.824,0,0,0,0-1.435l-9.5-5.652a.941.941,0,0,0-.912-.024Z" transform="translate(1274 878)"/></g></svg>